<svg xmlns="http://www.w3.org/2000/svg" width="460" height="397" fill="none" xmlns:v="https://vecta.io/nano"><g clip-path="url(#A)" fill-rule="evenodd"><path d="M198.158 65.829v-1.43c.294-.053.533-.212.715-.477a210.7 210.7 0 0 1 4.052-13.346 2.06 2.06 0 0 1 1.191-1.43l2.145-10.963h1.907c-.222-2.705.414-5.167 1.906-7.388a4.02 4.02 0 0 1 1.907-.238c.575-2.267 1.292-4.495 2.145-6.673a88.32 88.32 0 0 0 4.051-7.626v-.953h.477c1.641.223 2.912-.333 3.813-1.668.452-.23.929-.309 1.43-.238-.121-1.109.197-2.062.953-2.86 2.453-2.187 5.154-3.934 8.103-5.243.422-.393.581-.87.477-1.43 0-.318.158-.477.476-.477l5.72-.953v86.272h-41.944a502.93 502.93 0 0 1 .476-22.879z" fill="#689e39"/><path d="M246.775 3.389a26.43 26.43 0 0 1 9.535 6.673l2.383 4.766c.392.423.868.581 1.429.477a21 21 0 0 1 2.145 4.766c2.201 2.018 3.553 4.561 4.051 7.627l1.907 2.383c.394.423.87.581 1.431.477a8.51 8.51 0 0 0 1.905 2.86v.953a12.47 12.47 0 0 0 1.193 5.719c.622.807 1.336 1.442 2.143 1.907.423 5.002 1.296 9.928 2.622 14.776a5.95 5.95 0 0 0 1.907 2.383l3.098 13.823v1.43.953a88.08 88.08 0 0 0-9.294 9.533 19.59 19.59 0 0 0-1.669 3.813c-.317 0-.476.159-.476.477h-74.356l.953-21.926c-.113-.615.045-1.092.476-1.43-.332 7.621-.491 15.248-.476 22.879h41.944V2.436l-5.719.953c1.597-1.14 3.424-1.617 5.481-1.43 2.502.257 4.964.734 7.387 1.43z" fill="#548b2e"/><path d="M271.561 33.418c-.836-.834-1.471-1.787-1.904-2.86a64.03 64.03 0 0 0-13.347-20.496 26.43 26.43 0 0 0-9.534-6.673c-1-.684-2.111-1.24-3.336-1.668-4.502-.722-8.792-.087-12.869 1.907a5.76 5.76 0 0 0-2.384 2.145 45.02 45.02 0 0 0-7.388 6.197l-2.145 3.337h-.476v-2.383h1.43c-.074-1.68.562-3.031 1.906-4.051l11.44-8.58c3.894.099 7.791.02 11.677-.238.993.945 2.184 1.58 3.576 1.907a1.48 1.48 0 0 1 .476 1.43 6.17 6.17 0 0 1 2.384.238c.558.836 1.351 1.313 2.383 1.43 2.437 3.072 5.217 5.853 8.341 8.341.188 1.17.744 2.124 1.667 2.86.72-1.151 1.516-1.23 2.384-.238l-.953.953c.143.629.223 1.344.238 2.145 1.091.924 1.983 2.058 2.622 3.337a1.47 1.47 0 0 0 1.429.476c-.032 2.253.682 4.16 2.145 5.72.238 1.581.318 3.17.238 4.766z" fill="#edf9e3"/><path d="M233.43 3.865a1.47 1.47 0 0 1-.476 1.43c-2.949 1.309-5.65 3.056-8.103 5.243a3.43 3.43 0 0 0-.954 2.86c-.501-.071-.978.008-1.43.238-.901 1.335-2.172 1.891-3.813 1.668l2.145-3.337c2.272-2.356 4.735-4.422 7.388-6.196l5.243-1.907z" fill="#729a49"/><path d="M246.776 3.388c-2.423-.696-4.886-1.173-7.387-1.43-2.058-.187-3.885.29-5.482 1.43-.318 0-.476.159-.476.477l-5.243 1.907a5.75 5.75 0 0 1 2.383-2.145c4.077-1.993 8.367-2.629 12.869-1.907 1.224.428 2.337.984 3.336 1.668z" fill="#7b995f"/><path d="M218.177 15.305v.953c-2.046 2.435-3.955 4.981-5.72 7.626.291-2.959 1.244-5.659 2.86-8.103a4.7 4.7 0 0 1 2.86-.477z" fill="#f0f9e4"/><path d="M347.826 17.688c4.002 1.603 7.976 3.351 11.915 5.243l7.151 5.958c1.561 1.318 2.83 2.828 3.812 4.528-3.4-2.998-6.894-5.937-10.487-8.818l-10.487-5.005a41.35 41.35 0 0 1-8.103-1.668 69.08 69.08 0 0 0-8.1-.238 31.12 31.12 0 0 0-12.871.953c4.376-1.763 8.984-2.557 13.823-2.383 4.492.105 8.942.581 13.347 1.43z" fill="#90b961"/><path d="M347.825 17.688c5.069-.542 9.04 1.206 11.916 5.243a195.35 195.35 0 0 0-11.916-5.243z" fill="#eef9e0"/><path d="M333.526 17.689l-.479 69.828a3.37 3.37 0 0 1 .955 1.191h-62.441c.407-1.298.962-2.569 1.669-3.813 2.886-3.443 5.987-6.621 9.293-9.533.849.008 1.68-.241 2.384-.715 4.087-4.82 5.915-10.46 5.482-16.921 1.089-5.228 2.441-10.399 4.05-15.491 2.323-4.126 4.865-8.019 7.627-11.678.992-.585 1.944-1.3 2.86-2.145 2.037-.374 3.627-1.407 4.767-3.098a7 7 0 0 1 2.383-.715c.4-.482.559-1.038.477-1.668.802.077 1.612-.004 2.383-.238.966-1.278 2.236-2.072 3.812-2.383a8.92 8.92 0 0 0 .955-1.668h.953c4.23-1.218 8.518-1.535 12.87-.953z" fill="#7cb243"/><path d="M256.31 10.063a64.02 64.02 0 0 1 13.343 20.496 1.47 1.47 0 0 1-1.428-.477l-1.908-2.383c-.497-3.066-1.849-5.608-4.05-7.626-.531-1.71-1.246-3.299-2.145-4.766a1.47 1.47 0 0 1-1.429-.477l-2.383-4.766z" fill="#638847"/><path d="M347.825 17.688c-4.405-.849-8.855-1.326-13.347-1.43-4.838-.174-9.447.621-13.822 2.383h-.953c-2.248 1.2-4.632 2.074-7.15 2.622l-7.627 5.72c-1.106 1.099-2.059 2.29-2.86 3.575-.352-.062-.67.017-.953.238a69.04 69.04 0 0 1-6.672 7.388c.273-1.653 1.146-2.924 2.619-3.813.908-2.02 2.022-3.927 3.339-5.72a122.98 122.98 0 0 0 8.818-5.719 1.48 1.48 0 0 0 .476-1.43c2.071-.29 3.817-1.163 5.243-2.622a17.42 17.42 0 0 0 4.767-1.43c.979-.328 1.773-.884 2.381-1.668 8.545-.938 16.966-.541 25.265 1.192a1.08 1.08 0 0 1 .476.715z" fill="#f0fbe0"/><path d="M333.527 17.688a69.04 69.04 0 0 1 8.1.238c2.646.827 5.347 1.383 8.103 1.668l10.487 5.005a291.74 291.74 0 0 1 10.487 8.818c-.339 1.603.217 2.716 1.669 3.337 1.794 3.121 3.619 6.14 5.482 9.056.399.163.558.48.476.953l1.667 9.056c.317 4.284.317 8.585 0 12.869-.093.897-.331 1.691-.715 2.383-.452 6.174-.611 12.37-.476 18.589-.616-.285-1.254-.524-1.907-.715l-42.897-.238c-.217-.457-.535-.854-.955-1.192l.479-69.828z" fill="#8ac14a"/><path d="M319.704 18.641a8.92 8.92 0 0 1-.955 1.668 6.1 6.1 0 0 0-3.812 2.383c-.772.234-1.581.315-2.384.238.082.63-.077 1.186-.476 1.668a7.01 7.01 0 0 0-2.384.715c-1.14 1.691-2.73 2.724-4.767 3.098-.915.845-1.868 1.56-2.86 2.145.802-1.284 1.754-2.476 2.86-3.575l7.627-5.72a27.55 27.55 0 0 0 7.151-2.622z" fill="#8bae5e"/><path d="M359.74 22.932a5.71 5.71 0 0 1 2.86.477l9.056 7.626c.759 2.626 1.873 5.009 3.338 7.15l-4.291-4.766c-.981-1.7-2.251-3.21-3.812-4.528l-7.151-5.958z" fill="#edf9da"/><path d="M212.458 24.363c-2.709 4.311-4.774 8.919-6.197 13.823a72.03 72.03 0 0 1-3.336 7.627c-.079-1.439.001-2.868.238-4.29.636-.318 1.112-.794 1.43-1.43.381-2.725 1.175-5.268 2.383-7.626 1.042-2.745 2.392-5.287 4.052-7.626a1.47 1.47 0 0 1 1.43-.477z" fill="#e9f6dc"/><path d="M218.178 16.258l-4.052 7.626c-.855 2.186-1.57 4.41-2.144 6.673-.655-.075-1.291.005-1.907.238-1.492 2.221-2.128 4.684-1.907 7.388h-1.906a54.24 54.24 0 0 1 6.196-13.823v-.477c1.761-2.641 3.668-5.183 5.72-7.626z" fill="#749a4f"/><path d="M294.439 38.184a8.99 8.99 0 0 1-.714 3.813 47.04 47.04 0 0 0-4.05 10.486c.002-2.243.241-4.48.714-6.673 1.312-2.227 2.267-4.61 2.86-7.149a1.36 1.36 0 0 1 1.19-.477z" fill="#f0fae3"/><path d="M271.561 34.371l3.338 7.626c-.809-.465-1.523-1.1-2.145-1.907-.846-1.785-1.255-3.746-1.193-5.72z" fill="#6a884e"/><path d="M370.704 33.418l4.288 4.766a39.31 39.31 0 0 1 2.86 7.626c-1.86-2.917-3.685-5.936-5.482-9.056-1.449-.621-2.005-1.733-1.666-3.337z" fill="#99bb6d"/><path d="M374.992 38.184h1.431a6.62 6.62 0 0 0 1.67 2.86 11.98 11.98 0 0 1 .238 3.337h1.428c.566 2.988.885 6.016.955 9.056a41.87 41.87 0 0 0-2.383-6.673c.082-.473-.08-.79-.479-.953a39.31 39.31 0 0 0-2.86-7.626z" fill="#effade"/><path d="M206.261 38.184l-2.145 10.963a2.06 2.06 0 0 0-1.191 1.43 210.72 210.72 0 0 0-4.052 13.346c-.182.265-.421.424-.715.477.832-4.316 1.785-8.607 2.86-12.869a21.38 21.38 0 0 0 1.907-5.72c1.254-2.467 2.366-5.009 3.336-7.626z" fill="#759b50"/><path d="M271.561 33.418c1.613 1.396 2.566 3.223 2.859 5.481 1.59 1.258 2.463 2.926 2.622 5.005 1.529 1.168 1.926 2.439 1.193 3.813.783 1.156 1.339 2.427 1.667 3.813l.476-.953c.165.815.405 1.613.717 2.383-.513 1.401-.593 2.83-.238 4.29.828 1.978 1.304 4.043 1.428 6.196.619-.222 1.334-.222 2.146 0 .008.783-.31 1.419-.955 1.907l.241 6.196c.468.32 1.023.32 1.666 0-.465 1.247-1.182 2.359-2.145 3.337-.183-.265-.421-.424-.715-.477v-1.43c-1.193-10.713-3.732-21.041-7.626-30.982l-3.336-7.626v-.953z" fill="#f0f9e7"/><path d="M274.896 41.998c3.895 9.941 6.434 20.268 7.627 30.982l-3.097-13.823a5.95 5.95 0 0 1-1.908-2.383 82.3 82.3 0 0 1-2.622-14.776z" fill="#638846"/><path d="M289.675 53.438c-.603 3.789-1.002 7.608-1.193 11.439-.447 2.547-1.479 4.771-3.098 6.673.09-2.315.487-4.539 1.193-6.673a22.41 22.41 0 0 0-.238-7.865c.254-1.005.73-1.244 1.428-.715.41-1.145 1.045-2.098 1.908-2.86z" fill="#f5fcec"/><path d="M302.066 30.558c-2.762 3.659-5.304 7.552-7.627 11.678-1.609 5.092-2.961 10.263-4.05 15.491.433 6.461-1.395 12.102-5.482 16.921a4.19 4.19 0 0 1-2.384.715v-.953c.294.053.532.212.715.477.963-.978 1.68-2.09 2.145-3.337 1.619-1.902 2.651-4.126 3.098-6.673a106.69 106.69 0 0 1 1.193-11.44v-.953c.916-3.615 2.265-7.11 4.05-10.486a8.99 8.99 0 0 0 .715-3.813c2.381-2.278 4.606-4.74 6.674-7.388.283-.221.601-.301.953-.238z" fill="#8ab060"/><path d="M201.018 51.529c-1.075 4.262-2.028 8.553-2.86 12.869v1.43c-.431.338-.589.815-.476 1.43-.644 2.597-1.042 5.298-1.192 8.103-.238 4.764-.317 9.53-.238 14.299h-.477c-.334-7.559-.413-15.186-.238-22.879l1.43-2.86a73.25 73.25 0 0 1 3.098-11.439c.118-.578.436-.896.953-.953z" fill="#edf8e0"/><path d="M378.331 46.764a41.97 41.97 0 0 1 2.384 6.673c.37 5.075.529 10.164.476 15.253a55.99 55.99 0 0 0-1.908 6.196v-3.813c.384-.692.622-1.486.715-2.383.317-4.284.317-8.585 0-12.869l-1.667-9.056z" fill="#99bc72"/><path d="M381.191 68.69c-.506 5.709-.585 11.429-.238 17.159.973 1.049 1.449 2.32 1.428 3.813.482.399 1.04.558 1.669.477a6.22 6.22 0 0 0 .477 3.337l.952-.477c.471 1.558.63 3.147.476 4.766-5.248-6.668-7.473-14.294-6.672-22.879a55.98 55.98 0 0 1 1.908-6.196z" fill="#f1fbe1"/><path d="M197.681 67.26l-.953 21.926h74.356l105.339.477H196.251c-.079-4.769 0-9.536.239-14.299.15-2.805.547-5.506 1.191-8.103z" fill="#84974e"/><path d="M195.775 90.139v-.477h.477 180.172c1.259-.006 1.894.63 1.907 1.907h-.476l-.479-.953-181.601-.477z" fill="#897f45"/><path d="M195.298 90.139l2.839 1.623-118.664-.193c-.552 1.824-1.505 3.413-2.86 4.766v.477h-.953a23.3 23.3 0 0 1 2.86-6.435l116.778-.238z" fill="#623b38"/><path d="M195.775 90.139l181.601.476.479.954h-1.908l-180.172-1.43z" fill="#61401a"/><path d="M379.283 71.072v3.813c-.801 8.585 1.424 16.212 6.672 22.879v1.43c1.709 3.529 3.138 7.183 4.291 10.963l-.238 1.907c-1.606-1.659-2.955-3.406-4.053-5.243-.391-1.101-1.026-2.055-1.904-2.86.047-1.244-.27-2.356-.955-3.337-.119-2.19-1.072-3.937-2.86-5.243-.228-1.203-.863-2.157-1.905-2.86v-.953c-.013-1.277-.648-1.912-1.907-1.907l-105.339-.477c0-.318.159-.477.476-.477h62.442l42.897.238c.653.192 1.291.43 1.907.715a196.4 196.4 0 0 1 .476-18.589z" fill="#90b955"/><path d="M195.228 90.806v.941l-114.443.941h-1.43c38.462-1.88 77.087-2.507 115.874-1.883z" fill="#6c3433"/><path d="M195.299 90.139h.476l180.172 1.43h-.952-177.313a9.85 9.85 0 0 1-2.383-.477v-.477-.477z" fill="#6d3622"/><path d="M197.682 91.569c.227.373 160.457 0 177.311 0h.955 1.904.479v.953 3.337H376.9l-300.587.666 2.778-4.955h118.592z" fill="#73322c"/><path d="M197.682 91.568h177.31c-.431 1.078-.59 2.111-.476 3.098-1.339.149-2.608-.09-3.812-.715v-1.43l-171.592.715a6.99 6.99 0 0 1-1.43-1.668z" fill="#6e332e"/><path d="M378.331 92.522c1.042.703 1.677 1.656 1.905 2.86.029.529.188 1.005.479 1.43h-.955c-.225-.67-.701-.988-1.429-.953v-3.337z" fill="#634818"/><path d="M376.9 95.858h1.431c.727-.035 1.204.283 1.428.953H76.614v-.477l300.286-.476z" fill="#8e302a"/><path d="M75.66 96.811h.953 303.146.955c.254.772.414 1.573.476 2.383-.738-.153-1.055-.63-.955-1.43h-1.905l-301.24-.238c-.746.673-1.54 1.229-2.383 1.668l.953-2.383z" fill="#e46f68"/><path d="M378.331 97.766c-100.257-.08-200.51 0-300.764.238-.345 1.273-1.14 1.988-2.383 2.145l-.715 4.29a117.11 117.11 0 0 1-4.29 7.626c-.338.42-.735.737-1.192.953.211-2.01 1.085-3.599 2.622-4.766.847-2.005 1.403-4.07 1.668-6.196-.224-1.379.253-2.333 1.43-2.86a11.44 11.44 0 0 0 2.383-1.668l301.241.238z" fill="#ed6e67"/><path d="M380.235 95.381c1.786 1.306 2.741 3.053 2.86 5.243-.431-.338-.59-.815-.476-1.43h-1.429c-.063-.818-.222-1.612-.478-2.383-.289-.425-.448-.901-.477-1.43z" fill="#b1a854"/><path d="M378.561 96.92l1.674.844c-.1.8.217 1.277.955 1.43-.071.502.008.978.238 1.43l2.622 3.337.714 4.766c2.693 3.564 5.009 7.398 6.91 11.44.212 2.597.926 4.98 2.146 7.149.942.63 1.656 1.424 2.145 2.383l5.482 16.206.476-.476c.934.976 1.966 1.77 3.098 2.383v.477c-.077.959.003 1.925.238 2.859 1.167 1.218 1.96 2.648 2.384 4.29a1.36 1.36 0 0 0 1.193.477v.476a8.66 8.66 0 0 0 .238 2.86c3.731 5.724 6.546 11.996 8.341 18.589.558-.104 1.037.055 1.429.477l1.907 2.86c.14 1.065-.018 2.019-.476 2.86-127.545-.097-255.127-.097-382.746 0h-2.383c1.567-2.296 2.599-4.839 3.098-7.626 1.072-2.625 2.502-5.009 4.29-7.15 1.348-2.851 2.381-5.87 3.098-9.056 2.435-1.87 3.706-4.412 3.813-7.627.742-.46 1.378-1.096 1.907-1.906 1.795-5.061 3.941-9.986 6.435-14.776a16.57 16.57 0 0 0 2.86-2.86c.603-3.738 1.477-7.392 2.622-10.963h.477c1.617-.71 2.252-1.981 1.906-3.813.56.104 1.037-.055 1.43-.477a18.54 18.54 0 0 0 .715-3.336c.18-.688.577-1.164 1.191-1.43.457-.216.854-.533 1.192-.954a116.9 116.9 0 0 0 4.29-7.626l.715-4.289c1.243-.158 2.106-1.956 2.451-3.228h300.926z" fill="#f5695e"/><path d="M381.19 99.195h1.429c-.112.615.047 1.092.476 1.43.685.981 1.002 2.094.955 3.337l-2.622-3.337a2.35 2.35 0 0 1-.238-1.43z" fill="#cc8953"/><path d="M357.357 107.774c-1.561.135-3.071-.024-4.527-.477-.764.271-1.082.747-.955 1.43l5.006 1.192c.272.574.59 1.13.952 1.668 2.027-.028 3.138.925 3.339 2.86l-2.863-.953c-1.857-2.26-4.24-3.292-7.148-3.099a50.63 50.63 0 0 0-5.243 3.575 9.86 9.86 0 0 1-2.384.477 26.1 26.1 0 0 0 3.336-3.098c1.08-.113 2.114-.351 3.098-.716.4-1.106.558-2.218.479-3.336a8.7 8.7 0 0 1-2.622.953 3.33 3.33 0 0 1 .953-1.191c1.256-.738 2.608-1.294 4.052-1.668l4.527 2.383z" fill="#e64c40"/><path d="M180.046 105.391v-.477h97.235c.635 0 .955.318.955.953l-.479 72.45c.317-24.473 0-48.782-.952-72.926h-96.282-.477z" fill="#edaba5"/><path d="M279.187 176.888l-.952-71.02c0-.636-.32-.954-.955-.954-.738-.617-1.691-.935-2.86-.953l-94.375.953c-.294.053-.532.212-.715.477a8.8 8.8 0 0 0-.238 2.86v70.543l-.953-73.165c.04-.527.199-1.004.476-1.43 1.064-.521 2.184-.921 3.337-1.191l95.804.476c.159.477.479.795.955.954l.476 72.45z" fill="#eb6c66"/><path d="M277.281 104.914h-97.235l94.375-.953c1.169.019 2.122.336 2.86.953z" fill="#d57871"/><path d="M343.535 114.446a83.22 83.22 0 0 1-10.963 4.529c-.77.293-1.405.769-1.908 1.43a4.01 4.01 0 0 1-1.904.238 9.86 9.86 0 0 1-.476 2.383c-.471 1.971-.63 4.036-.479 6.197a5.82 5.82 0 0 1-3.098-.477 38.7 38.7 0 0 1 0-8.58 512.68 512.68 0 0 0 23.119-11.916 8.68 8.68 0 0 0 2.622-.953 8.06 8.06 0 0 1-.479 3.336c-.984.364-2.019.603-3.098.715a26.09 26.09 0 0 1-3.336 3.098z" fill="#ef4439"/><path d="M384.05 103.961a7.03 7.03 0 0 1 1.905 2.86 184.86 184.86 0 0 0 5.481 11.439c.234.607.316 1.261.241 1.907-1.908-4.048-4.212-7.861-6.913-11.44a48.82 48.82 0 0 0-.714-4.766z" fill="#ce8551"/><path d="M99.97 109.205c.49-.073.99.011 1.43.239-2.628.73-2.787 1.445-.477 2.145.672-.176 1.149-.573 1.43-1.192l4.29-.715c.884-.076 1.519.242 1.906.953-1.64-.094-3.228.144-4.766.715a161.31 161.31 0 0 1-20.496 10.725h-.953c.27-.752.746-1.388 1.43-1.907 1.054-.297 2.007-.773 2.86-1.43-1.175-1.332-2.287-1.252-3.337.239-1.792-.093-3.301.463-4.528 1.668a30.6 30.6 0 0 0 0 7.626c.529.733 1.244 1.05 2.145.953-.079-1.909.001-3.822.238-5.719.337-.42.735-.738 1.192-.954v.954l-.953 6.196c-1.092.122-2.125-.037-3.098-.477a43.1 43.1 0 0 1 0-9.056c.9-1.137 2.091-1.693 3.575-1.668.932-.454 1.727-1.09 2.383-1.906a18.31 18.31 0 0 0 8.58-4.29 201.44 201.44 0 0 0 7.149-3.099z" fill="#e74c3e"/><path d="M358.309 113.494c-1.682-1.062-3.587-1.698-5.719-1.906-1.418.065-2.37.78-2.86 2.144-1.219-.191-2.492-.111-3.812.239 1.653-1.289 3.402-2.48 5.243-3.575 2.908-.193 5.291.839 7.148 3.098z" fill="#f9c8b0"/><path d="M180.046 104.914v.477 71.02l-.953-68.16a8.8 8.8 0 0 1 .238-2.86c.183-.265.421-.424.715-.477z" fill="#d0776f"/><path d="M111.409 112.065c1.434-.079 2.873.001 4.29.238l-.477.476c1.222 1.304 2.493 2.495 3.813 3.575-2.877-.958-5.419-2.388-7.626-4.289z" fill="#dd5a4a"/><path d="M358.312 113.494l2.86.954h.476c2.479 1.286 4.862 2.796 7.148 4.528 1.31.263 2.589.662 3.815 1.192a31.95 31.95 0 0 0 4.288 2.86v52.43h-1.428-46.236l.238-52.43c.342-.26.58-.578.715-.954 4.688-2.125 9.135-4.667 13.346-7.626a9.86 9.86 0 0 0 2.384-.477c1.32-.35 2.592-.429 3.812-.238.489-1.364 1.442-2.079 2.86-2.145 2.132.209 4.037.844 5.722 1.906z" fill="#fbedd2"/><path d="M131.905 129.223c.151-2.16-.007-4.226-.477-6.197a3.33 3.33 0 0 1-1.906-.953l-10.487-5.72c-1.32-1.08-2.591-2.271-3.813-3.575l.477-.476a19.44 19.44 0 0 0-4.29-.238c-1.234.018-2.187-.459-2.86-1.431-.387-.711-1.022-1.029-1.906-.953l-4.29.715c-.281.619-.758 1.017-1.43 1.192-2.31-.7-2.151-1.415.477-2.145-.452-.23-.929-.309-1.43-.238a63.99 63.99 0 0 1 6.911-3.813 780.28 780.28 0 0 0 27.884 14.776c.474 3.001.634 6.02.476 9.056h-3.336z" fill="#ec4639"/><path d="M389.294 103.484a5.5 5.5 0 0 1 1.905 3.337c.775-.067 1.33.251 1.669.953.42 3.237 1.138 6.428 2.146 9.533.15 2.16-.008 4.226-.477 6.197a62.03 62.03 0 0 0-5.243-20.02z" fill="#f1fadd"/><path d="M108.549 110.633c.672.972 1.626 1.449 2.86 1.43 2.207 1.902 4.749 3.332 7.626 4.29l10.486 5.72a20.4 20.4 0 0 0 .715 2.383l.239 51.001H83.287a752.97 752.97 0 0 1 0-53.384c7.071-3.075 13.903-6.65 20.495-10.724a11.62 11.62 0 0 1 4.767-.716z" fill="#fcedd3"/><path d="M361.648 114.447l6.196.477c.238 2.626 1.667 3.976 4.291 4.051.357.32.516.717.476 1.192a19.1 19.1 0 0 0-3.814-1.192c-2.286-1.732-4.667-3.241-7.149-4.528z" fill="#da5946"/><path d="M343.535 114.447a82.13 82.13 0 0 1-13.347 7.626c-.728-.034-1.204.284-1.429.954h-.476c.257-.771.416-1.565.476-2.383a4.03 4.03 0 0 0 1.908-.239c.5-.66 1.135-1.137 1.905-1.43 3.783-1.257 7.436-2.766 10.963-4.528z" fill="#d25443"/><path d="M385.955 99.195l3.339 4.29a62 62 0 0 1 5.24 20.019v.477l-2.859-3.813c.076-.655-.003-1.291-.238-1.907-1.974-3.784-3.802-7.597-5.482-11.44 1.098 1.838 2.447 3.585 4.053 5.244l.238-1.907a75.93 75.93 0 0 0-4.291-10.963z" fill="#9ab85f"/><path d="M82.334 122.072v.477c-.457.216-.854.533-1.192.953-.238 1.897-.318 3.81-.238 5.72-.901.097-1.616-.221-2.145-.953-.318-2.532-.318-5.094 0-7.627 1.227-1.204 2.736-1.76 4.528-1.668 1.049-1.491 2.161-1.57 3.337-.238-.853.656-1.806 1.133-2.86 1.43-.684.518-1.16 1.154-1.43 1.906z" fill="#f14236"/><path d="M73.277 102.055a23.23 23.23 0 0 1-1.668 6.196c-1.537 1.167-2.41 2.756-2.621 4.767-.615.266-1.012.742-1.192 1.43-.137 1.139-.375 2.251-.715 3.336-.393.422-.87.581-1.43.477.346 1.832-.29 3.103-1.907 3.813 2.734-6.954 5.911-13.627 9.533-20.019z" fill="#d97d79"/><path d="M357.357 107.773c2.066.42 3.815 1.373 5.244 2.86 6.386 2.817 12.582 5.995 18.59 9.533.473 2.994.632 6.029.476 9.057h-3.336l-.955-5.244c.082-.473-.077-.79-.476-.953-1.492-.828-2.924-1.782-4.289-2.86a1.36 1.36 0 0 0-.479-1.191c-2.621-.075-4.05-1.426-4.288-4.052-2.061-.203-4.127-.363-6.196-.477h-.479c-.198-1.934-1.309-2.887-3.335-2.859-.363-.538-.68-1.094-.953-1.669-1.674-.441-3.344-.839-5.005-1.191-.13-.683.188-1.159.952-1.43a11.7 11.7 0 0 0 4.529.476z" fill="#ed463b"/><path d="M278.236 105.867l.952 71.02c.196 1.179-.28 1.814-1.431 1.907-32.65.159-65.221-.001-97.711-.477h97.711l.479-72.45z" fill="#db7e79"/><path d="M391.678 120.166l2.86 3.813 1.428 5.72c-.487-.959-1.204-1.753-2.145-2.383-1.22-2.17-1.934-4.553-2.143-7.15z" fill="#d5876a"/><path d="M126.661 125.887v45.758H87.1v-45.758h39.561z" fill="#5c4036"/><path d="M126.662 125.41v.477H87.101v45.758h-.477V125.41h40.038z" fill="#7b6353"/><path d="M82.334 122.074h.953a752.97 752.97 0 0 0 0 53.384 1144.45 1144.45 0 0 0 46.711.477c-15.806.476-31.695.635-47.664.477v-52.908-.953-.477z" fill="#f6b7a2"/><path d="M333.048 125.41h40.04v46.235h-40.04V125.41z" fill="#5e4339"/><path d="M377.376 123.98l.955 5.244c.315 15.896-.005 31.625-.955 47.187V123.98z" fill="#da746a"/><path d="M120.942 168.784l1.907-.954c.635-12.861.635-25.746 0-38.608-5.234-.635-10.635-.953-16.206-.953s-10.972.318-16.206.953c-.314 13.038.004 25.908.953 38.608h.953l.953.954c-1.691.193-3.28-.046-4.766-.715.385-.147.703-.385.953-.715a406.26 406.26 0 0 1-.953-39.085c11.59-.622 23.205-.622 34.795 0a13.35 13.35 0 0 1 .714 2.383c.381 12.722.301 25.432-.238 38.132h-2.86z" fill="#4e4542"/><path d="M90.436 129.223h32.412c.635 12.869.635 25.738 0 38.608v-34.319-.476a24.58 24.58 0 0 0-.477-3.337H90.913c-.146 12.726.012 25.436.477 38.132-.949-12.701-1.267-25.57-.953-38.608z" fill="#658083"/><path d="M122.372 133.512l-.238 32.888c-.358.299-.755.537-1.192.715-8.799.517-17.537.279-26.215-.715v-32.888h27.645z" fill="#68d2ef"/><path d="M122.848 133.036v.477h-.477-27.645v32.888 1.43h-.477c-.588-.703-1.064-1.498-1.43-2.383.014-.729.332-1.285.953-1.668-.532-4.822-.85-9.827-.953-15.015.026-4.452.186-8.903.477-13.346l-1.43-4.29c10.01-.079 20.021 0 30.029.239.279.62.596 1.177.953 1.668z" fill="#4a949e"/><path d="M122.848 133.036c-.357-.492-.674-1.048-.953-1.669a948.26 948.26 0 0 0-30.028-.238l1.43 4.29c-.291 4.443-.45 8.894-.477 13.346.103 5.188.421 10.193.953 15.014a1.89 1.89 0 0 0-.953 1.669c.366.885.842 1.679 1.43 2.383h-1.907-.953c-.464-12.705-.623-25.419-.477-38.132h31.459a24.53 24.53 0 0 1 .476 3.337z" fill="#568d91"/><path d="M122.848 129.223H90.437c5.233-.635 10.636-.953 16.206-.953s10.973.318 16.206.953z" fill="#454c49"/><path d="M82.334 123.504v52.908c-.56.104-1.037-.055-1.43-.477.474-15.391.632-30.802.477-46.235l.954-6.196z" fill="#e07266"/><path d="M131.428 123.027c.47 1.971.628 4.037.477 6.197.628 15.828.628 31.637 0 47.426a34.98 34.98 0 0 1-7.388.715l-42.183-.954c15.969.159 31.858-.001 47.664-.476.475.041.872-.119 1.192-.477l.238-52.431z" fill="#de7064"/><path d="M376.899 123.027c.399.163.558.481.476.954v52.43h-.952a1191.67 1191.67 0 0 1-47.664-.476c15.651.158 31.222-.001 46.711-.477h1.429v-52.431z" fill="#f5b5a3"/><path d="M395.013 117.307l1.191 8.579c1.405 3.911 2.915 7.724 4.529 11.44.918-.128 1.714.11 2.383.715-.399 1.765.157 3.274 1.667 4.528a46.26 46.26 0 0 1 1.431 6.196 15.4 15.4 0 0 0 2.146 2.383 4.7 4.7 0 0 1 .476 2.86h1.429a38.48 38.48 0 0 0 1.907 6.912c1.918 1.856 2.873 4.16 2.86 6.911-.572-1.457-1.445-2.728-2.622-3.813-.791-2.791-1.984-5.333-3.574-7.626v-.477a42.71 42.71 0 0 0-3.815-7.626v-.477c-1.815-3.786-3.484-7.599-5.002-11.439-1.019-2.529-2.371-4.753-4.053-6.674l-1.429-5.719v-.477c.468-1.97.627-4.036.476-6.196z" fill="#fcebe5"/><path d="M129.522 122.074c.526.525 1.162.843 1.906.954l-.238 52.43a1.36 1.36 0 0 1-1.192.477c-15.652.158-31.222-.001-46.711-.477h47.188l-.238-51a20.3 20.3 0 0 1-.715-2.384z" fill="#fbccb7"/><path d="M369.273 167.831v-38.608h-32.887v38.608c-.476-13.105-.634-26.293-.478-39.561l2.859-.477 31.937.953c-.606 12.481-.606 24.953 0 37.417-.415.65-.892 1.206-1.431 1.668z" fill="#474744"/><path d="M369.273 167.831h-.476v-34.319-3.813h-31.458l.238 36.702 2.622 1.43h-1.908-1.904v-38.608h32.886v38.608z" fill="#658485"/><path d="M368.797 133.512h-28.122v34.319h-.476l-2.622-1.43-.238-36.702h31.458v3.813z" fill="#4e919a"/><path d="M368.796 133.512v34.318h-28.121v-34.318h28.121z" fill="#76c8dc"/><path d="M343.058 133.989c8.027-.155 16.057.004 24.071.477l.953 1.907.238 30.981h-27.17l.955-30.505c-.352-.571-.519-1.237-.478-1.906.801.102 1.277-.216 1.431-.954z" fill="#68d2ef"/><path d="M395.966 129.699c1.682 1.921 3.034 4.145 4.053 6.673a177.26 177.26 0 0 0 5.002 11.44c-1.132-.613-2.164-1.407-3.098-2.383l-.476.476-5.481-16.206z" fill="#e3756e"/><path d="M63.268 122.074c-1.145 3.571-2.019 7.225-2.621 10.963a16.57 16.57 0 0 1-2.86 2.86c-2.494 4.79-4.639 9.715-6.435 14.776-.529.81-1.164 1.446-1.907 1.907-.048-1.244.27-2.356.953-3.337 4.161-9.117 8.451-18.174 12.869-27.169z" fill="#e07974"/><path d="M405.022 148.289c1.513 2.391 2.785 4.933 3.814 7.626-.476.041-.873-.118-1.193-.476-.423-1.643-1.217-3.073-2.383-4.29a8.8 8.8 0 0 1-.238-2.86z" fill="#d87a75"/><path d="M49.445 152.578c-.107 3.214-1.378 5.757-3.813 7.626a17.33 17.33 0 0 1 3.813-7.626z" fill="#d97a72"/><path d="M122.372 133.512h.477v34.318H94.727v-1.43c8.678.994 17.416 1.232 26.215.715.437-.178.834-.416 1.192-.715.238-10.962.318-21.925.238-32.888z" fill="#86c3d4"/><path d="M92.343 167.832h1.907.476 28.122l-1.907.953H93.296l-.953-.953z" fill="#424c49"/><path d="M338.291 167.832h1.907.477 28.121.476c-.198.344-.515.583-.952.715l-12.87.238c-5.818.107-11.54-.21-17.159-.953z" fill="#424c4a"/><path d="M408.836 156.393c1.59 2.293 2.783 4.835 3.574 7.626 1.177 1.085 2.05 2.356 2.622 3.813 1.392 4.007 3.231 7.844 5.481 11.439.232.608.314 1.262.238 1.907l-1.907-2.86a1.47 1.47 0 0 0-1.429-.476c-1.814-6.637-4.595-12.833-8.341-18.59-.235-.934-.315-1.9-.238-2.859z" fill="#db7c76"/><path d="M126.662 125.41c.476 15.489.635 31.059.477 46.712-13.587.157-27.092-.002-40.515-.477h.477 39.562v-45.758-.477z" fill="#beae9a"/><path d="M333.048 125.41v46.235h40.04a863.25 863.25 0 0 1-40.516.477c-.159-15.653.002-31.223.476-46.712z" fill="#c3b59f"/><path d="M330.187 122.073c-.135.376-.373.694-.714.953l-.238 52.431h46.235c-15.489.476-31.06.635-46.711.477v-52.908c.225-.67.701-.988 1.428-.953z" fill="#fed2bc"/><path d="M328.283 123.027h.477v52.908a1192.74 1192.74 0 0 0 47.664.476 614.55 614.55 0 0 1-48.379 0c-.351-17.798-.272-35.593.238-53.384z" fill="#d97d6d"/><path d="M180.046 105.391h.477c-.316 24.314.002 48.464.953 72.449h92.469 2.86a1377.89 1377.89 0 0 0 0-72.449c.952 24.144 1.269 48.453.952 72.926h-97.711v-1.907-71.019z" fill="#fcdcdb"/><path d="M277.767 178.269c-7.275 0-112.302-.11-96.958-.11l-.397-72.774h97.09l.265 72.884z" fill="#f4f4f4"/><path d="M179.093 108.25l.953 68.16v1.907l97.711.476a2551.23 2551.23 0 0 1-98.664 0V108.25z" fill="#e0756b"/><path d="M180.046 180.701h146.567c1.469.481 1.469 1.117 0 1.907a654.17 654.17 0 0 0-43.135-.239c-2.092.528-4.238.767-6.436.715l-89.608-.953-11.202 1.43-43.136-.953a1544.11 1544.11 0 0 1-53.146.476 2.09 2.09 0 0 1 .477-1.668l5.243-.238 90.086.477c1.566.025 2.996-.293 4.29-.954z" fill="#f26b5d"/><path d="M420.678 181.047c.317 0 .476.16.476.481v4.545c-128.836 0-257.54-.132-385.979-.132v-2.008h96.428 91.535 98.016 99.048c.457-.849.616-1.811.476-2.886z" fill="#e2706e"/><path d="M33.239 185.943h149.19 240.706v1.907 10.128c-128.494.023-278.304-.132-389.896-.132v-11.903z" fill="#968999"/><path d="M422.66 198.336l-.717 152.526c-1.54.613-3.209.931-5.003.955l-4.767-.241a14.11 14.11 0 0 1-1.193-2.143 1.35 1.35 0 0 0-1.191-.476c-2.83-1.693-4.021-4.236-3.574-7.627-3.185-5.296-7.873-8.556-14.06-9.773l-3.339-3.336c-.778-.235-1.572-.314-2.381-.238h-.479v-1.431a41.35 41.35 0 0 0-12.392-.714 15.1 15.1 0 0 0-4.767 2.145 6.92 6.92 0 0 1-2.86 1.908c-3.351 1.55-6.687 1.55-10.008 0 .387-.627.863-1.183 1.429-1.67l-8.579-.238h-6.672c-3.085.246-6.103.723-9.059 1.429-4.552-.862-9.161-1.101-13.822-.714a77.3 77.3 0 0 0-6.672 5.005 3.28 3.28 0 0 1-1.908.476v1.431h-.952c-1.466-.074-2.817.244-4.05.953-.921-.207-1.794-.524-2.622-.953-2.966.609-5.902.609-8.82 0-1.037 1.196-2.23 2.231-3.574 3.098a31.15 31.15 0 0 0-5.482 3.098 163.19 163.19 0 0 0-2.145 6.672c-.873.786-1.667 1.582-2.381 2.384a55.4 55.4 0 0 1-8.582.238c-.537-1.945-.617-3.929-.238-5.958l.955.955.238-105.817a6.18 6.18 0 0 1-2.384-.238c-1.235-1.305-2.664-1.463-4.291-.477l-71.496.715c-2.565-.011-5.107-.17-7.626-.477-.59.212-1.067.53-1.43.956h-.476l-.477 110.103a27.27 27.27 0 0 1-7.15-.476c-.211-.59-.528-1.067-.953-1.429a5.6 5.6 0 0 0-2.383-1.431h-.477a13.99 13.99 0 0 0-.477-3.098c-.087-.656-.405-1.053-.953-1.193-.919-1.085-1.396-2.357-1.43-3.812a201.44 201.44 0 0 0-8.579-2.622c-2.302-.296-4.636-.215-6.912.238-2.069-.299-4.055-.775-5.958-1.429h-1.43c-.129-.865-.447-1.658-.953-2.383l-6.435-4.291-10.009-.953a37.6 37.6 0 0 1-9.295.953c-1.922-.217-3.831-.535-5.72-.953-2.544-.079-5.091 0-7.626.238a6.38 6.38 0 0 1-4.29 1.191v1.431c-2.435.802-4.978 1.119-7.626.953-1.02-.625-1.815-1.498-2.383-2.622-.818-.741-1.771-1.14-2.86-1.191v-1.431l-10.248-1.428a29.22 29.22 0 0 0-7.626.952c-1.699-.098-3.208-.574-4.528-1.429-1.436-.153-2.071.482-1.907 1.905a11.91 11.91 0 0 1 3.337.241 1.72 1.72 0 0 1 .476.714c-1.904 1.143-3.493 2.572-4.766 4.289a25.39 25.39 0 0 0-6.196 2.145c-.745.362-1.222.918-1.43 1.669-1.422.947-2.534 2.22-3.337 3.813-.644.468-1.12 1.103-1.43 1.907-.393 1.725-.632 3.473-.715 5.243-1.797 1.359-2.818 4.183-5.005 5.003l-6.435.241c-2.389-.029-5.533-.241-8.046-.532l.181-22.355c-.221-1.42.097-2.843 0-4.283l-.049-126.801 389.469.49z" fill="#c5c9e8"/><path d="M32.763 197.859h.476v126.788l.477 4.289-.953-.953h-.477l.477-130.124z" fill="#d7dbe6"/><path d="M422.658 198.336h.477v128.693c-.477 8.338-.635 16.759-.477 25.264h-11.439c-.393-1.147-.871-2.263-1.431-3.339.474-.039.873.12 1.191.479a14.07 14.07 0 0 0 1.193 2.143l4.767.238c1.794-.021 3.463-.338 5.003-.952l.716-152.526z" fill="#c7cbda"/><path d="M147.634 229.797h-72.45c.053-.296.212-.534.477-.717h71.497c.265.183.424.421.477.717z" fill="#cbcddd"/><path d="M383.095 229.797h-73.402a677.32 677.32 0 0 1 36.225-.955l36.225.238c.437.132.754.37.952.717z" fill="#cacddd"/><path d="M309.693 229.797v73.402c-.614-.267-1.01-.743-1.19-1.431l-.479.955c-.146-.603-.384-1.162-.714-1.67.597-11.179.915-22.539.955-34.079l-.241-30.505c-.103-1.394-.341-2.746-.714-4.05 1.068-.68 1.862-1.553 2.383-2.622z" fill="#c6cbe2"/><path d="M309.693 229.797h73.402v73.402h-73.402v-73.402z" fill="#f3f3fa"/><path d="M280.617 350.862v1.431h-9.532l-.476-111.058-84.843-.479c.363-.424.839-.741 1.43-.953 2.518.307 5.061.466 7.626.477l71.496-.715c1.627-.987 3.055-.828 4.291.476.778.236 1.574.315 2.383.239l-.238 105.814-.955-.952c-.378 2.029-.299 4.013.238 5.958 2.862.143 5.73.063 8.58-.238z" fill="#cacadf"/><path d="M185.288 240.756h.477l84.843.479h-84.843v111.058c0 .317-.159.476-.477.476h-7.149v-.476h7.149V240.756z" fill="#a0959c"/><path d="M270.608 241.236l.477 111.059h9.531.479c0 .317-.159.476-.479.476h-10.008v-.476-111.059z" fill="#b8aeb6"/><path d="M185.289 240.76v111.534h-7.149c-1.113-.799-1.59-1.913-1.43-3.338.424.365.742.841.953 1.431 2.352.473 4.756.633 7.15.476l.476-110.103z" fill="#cbc6d5"/><path d="M270.608 241.236v119.045c-.293-.053-6.547-.264-6.73-.529-.238-2.854-.079-12.743 0-15.608.318-16.524 0-33.053 0-49.736v-45.37c-.473-.04-71.109.172-71.428.529v110.45c-4.63 0-6.217-.265-6.879-.265l.194-118.516h84.843z" fill="#6c585a"/><path d="M264.275 360.412l-65.163-.37h-6.662l-.012-111.271h71.837v7.011 104.63z" fill="#5e4036"/><path d="M199.195 255.65h65.08v102.91h-65.08V255.65z" fill="#8c6e63"/><path d="M75.184 229.797v72.926h72.927v-72.926c.318 0 .477.159.477.476v72.926h-73.88v-72.926c0-.317.159-.476.477-.476z" fill="#e1e4f2"/><path d="M75.184 229.797h72.45.476v72.926H75.184v-72.926z" fill="#f4f5fd"/><path d="M74.707 230.273v72.926h73.88v-72.926c.635 11.99.953 24.146.953 36.463l-.238 36.463-2.621 1.191-66.492.717c-1.74-.535-3.329-.535-4.766 0a5.89 5.89 0 0 0-2.145-2.384l.238-71.021a38.3 38.3 0 0 1 1.192-1.429z" fill="#c6cae2"/><path d="M96.157 331.796c-.49.073-.99-.01-1.43-.239-1.679-1.928-3.745-3.121-6.196-3.574-.224-.568-.701-.886-1.43-.952a24.8 24.8 0 0 0-12.393-.241c-.772.114-1.248.511-1.43 1.193h-.953c-2.069 1.511-4.294 2.783-6.673 3.813 1.273-1.717 2.862-3.146 4.766-4.289-.096-.275-.26-.521-.477-.717a11.98 11.98 0 0 0-3.337-.238c-.165-1.423.471-2.058 1.906-1.905 1.32.855 2.829 1.331 4.528 1.429a29.22 29.22 0 0 1 7.626-.952l10.248 1.428v1.431a4.44 4.44 0 0 1 2.86 1.191c.568 1.124 1.363 1.997 2.383 2.622z" fill="#c7ccd4"/><path d="M88.53 327.983c-2.608-.682-5.309-1-8.103-.952-2.485-.08-4.868.238-7.15.952.182-.682.658-1.079 1.43-1.193a24.8 24.8 0 0 1 12.393.241c.729.066 1.206.383 1.43.952z" fill="#ced693"/><path d="M385.955 327.985c-4.016-1.336-8.146-1.733-12.392-1.193-1.122.116-2.074.513-2.86 1.193h-1.907c1.434-.979 3.021-1.693 4.767-2.146 4.172-.386 8.304-.148 12.392.715v1.431z" fill="#b1c8bc"/><path d="M385.955 327.983h.479l.953 1.432c-5.45-1.291-11.011-1.77-16.683-1.432.786-.679 1.738-1.076 2.86-1.19 4.246-.542 8.376-.143 12.391 1.19z" fill="#5c8347"/><path d="M88.53 327.985c2.452.452 4.517 1.645 6.196 3.574.44.228.94.311 1.43.238 2.649.167 5.191-.151 7.627-.952v-1.432c1.587.114 3.016-.283 4.289-1.19 2.535-.238 5.082-.318 7.627-.238l.476.952c-5.186-.55-9.873.722-14.06 3.815a18 18 0 0 1-8.818-.241c-1.074-1.492-2.504-2.524-4.29-3.098-.422-.391-.581-.867-.477-1.428z" fill="#cdd892"/><path d="M368.796 327.984h1.908c5.672-.338 11.233.138 16.682 1.429.006.725.323 1.28.953 1.669 1.471.635 2.74 1.508 3.814 2.622a78.4 78.4 0 0 1 4.765 1.191c.831 1.846 2.262 2.719 4.291 2.621 1.111 1.77 2.063 3.677 2.86 5.72a20.4 20.4 0 0 1 .714 4.291c.799.521 1.355 1.235 1.669 2.145a3.36 3.36 0 0 1 2.146 1.191c.198 1.201.756 2.156 1.667 2.86.968 2.177 1.761 4.402 2.383 6.674-26.547 6.63-107.053 11.254-133.294.545.747-2.124 2.09-4.897 2.456-7.219 1.433-1.672 2.465-3.58 3.097-5.72 1.336-1.389 2.45-2.979 3.336-4.767a8.47 8.47 0 0 0 4.768-3.574c6.045-.484 12.082-1.119 18.113-1.908 1.85-2.404 3.916-4.55 6.196-6.434h.476c2.529-.421 5.073-.738 7.627-.952a74.72 74.72 0 0 0 12.868.714c.521-.738 1.156-1.296 1.907-1.669 3.94-.728 7.834-.569 11.678.479 1.272 1.987 3.1 2.942 5.481 2.86 2.693.269 5.236-.207 7.627-1.432.442-.407.759-.883.953-1.428 1.121-.402 2.076-1.037 2.859-1.908z" fill="#548b2e"/><path d="M148.111 335.611c-1.182-1.15-2.612-1.944-4.29-2.383-.375-.765-1.01-1.082-1.906-.955v-1.429c-1.042-.098-1.995-.415-2.86-.955-1.396-.627-2.984-.944-4.767-.952-2.658-.064-5.2.256-7.626.952-1.901.185-3.649-.135-5.243-.952 3.126.07 6.248-.25 9.294-.953l10.01.953 6.435 4.291c.506.725.824 1.518.953 2.383z" fill="#c9cdcc"/><path d="M139.055 329.892c-4.135-.532-8.266-.532-12.393 0 2.426-.698 4.968-1.016 7.627-.952 1.782.005 3.37.322 4.766.952z" fill="#cad2af"/><path d="M446.965 335.134a193.26 193.26 0 0 0-10.008-5.481c-4.139-1.432-8.49-2.158-12.87-2.146v-.476c.738-.617 1.69-.937 2.86-.955 2.158.59 4.225.431 6.195-.476l1.432.238c-.458.547-.299 1.023.476 1.431 4.201 1.936 8.172 4.082 11.915 6.434v1.431z" fill="#effae1"/><path d="M115.699 327.984c1.889.418 3.795.736 5.72.953 1.594.817 3.342 1.137 5.243.952-2.469.542-5.012.542-7.626 0-.859-.455-1.812-.772-2.86-.952l-.477-.953z" fill="#ccd1b3"/><path d="M139.054 329.891c.865.537 1.819.854 2.86.952v1.432c.896-.13 1.531.187 1.907.952-.923-.31-1.876-.468-2.86-.476v-1.431a75.37 75.37 0 0 1-8.103-.953l-7.388.953c-2.35.185-4.495-.291-6.435-1.429 2.615.542 5.157.542 7.627 0 4.126-.532 8.257-.532 12.392 0z" fill="#ceda80"/><path d="M340.198 329.412c-.751.373-1.386.931-1.907 1.669a74.72 74.72 0 0 1-12.868-.714l-7.627.953a28.42 28.42 0 0 1 2.86-1.667 56.25 56.25 0 0 1 13.822.714c2.011.042 3.918-.275 5.72-.955z" fill="#5e864e"/><path d="M342.106 327.984h6.672c1.457.778 3.047 1.334 4.767 1.667 1.209 1.148 2.479 2.183 3.812 3.101-2.381.082-4.209-.873-5.482-2.863-3.843-1.045-7.738-1.204-11.677-.476l1.908-1.429z" fill="#658858"/><path d="M348.777 327.984l8.58.238a7.1 7.1 0 0 0-1.429 1.667c3.32 1.553 6.656 1.553 10.008 0-.193.545-.511 1.024-.952 1.431-2.392 1.225-4.934 1.701-7.627 1.432a31.33 31.33 0 0 1-3.812-3.101 16.88 16.88 0 0 1-4.768-1.667z" fill="#becdd3"/><path d="M342.106 327.984l-1.908 1.429c-1.801.68-3.709.997-5.719.955a56.4 56.4 0 0 0-13.823-.717 29.1 29.1 0 0 0-2.86 1.669h-.476c-2.347 1.231-4.58 2.667-6.674 4.291v-1.431a3.28 3.28 0 0 0 1.907-.476 77.04 77.04 0 0 1 6.672-5.005c4.661-.387 9.27-.149 13.823.714a58.9 58.9 0 0 1 9.058-1.429z" fill="#b9cec6"/><path d="M88.53 327.984c-.105.561.054 1.037.476 1.431 1.786.571 3.216 1.603 4.29 3.098 2.924.812 5.863.891 8.818.238 4.188-3.093 8.875-4.365 14.061-3.815a9.45 9.45 0 0 1 2.86.955c1.94 1.138 4.085 1.614 6.435 1.429 2.476-.202 4.942-.519 7.388-.953a75.37 75.37 0 0 0 8.103.953v1.431c.984.008 1.937.167 2.86.476 1.35.889 2.462 2.08 3.336 3.574a14.39 14.39 0 0 1 4.767 1.432c4.299.15 8.589.388 12.869.714 2.362.865 4.427 2.217 6.196 4.05a2.37 2.37 0 0 0 1.43.241c-.274 1.741.203 3.172 1.43 4.288h.477c.703 2.445 1.974 4.508 3.813 6.196.318 0 .477.159.477.479.402 1.716.563 3.48.477 5.24-.4.165-.559.482-.477.956-.594 1.142-1.547 1.859-2.86 2.145H50.398c-1.258-.312-2.37-.868-3.337-1.669.113-.617-.046-1.093-.476-1.432v-.952c-.08-1.981.237-3.889.953-5.719a9.04 9.04 0 0 0 2.86-1.908l3.813-2.86c-.033-3.878 1.238-7.214 3.813-10.008 1.264-.55 2.217-1.426 2.86-2.621a40.45 40.45 0 0 1 7.15-2.86 7.06 7.06 0 0 0 1.43-1.669 12.24 12.24 0 0 0 2.86-2.86h.953c2.282-.714 4.665-1.032 7.15-.953 2.794-.047 5.495.27 8.103.953z" fill="#d3df56"/><path d="M424.087 327.984v1.905a462.64 462.64 0 0 1-.238 20.974c-.111.59-.349 1.066-.714 1.431-.313-8.278.005-16.381.952-24.31z" fill="#a1bf89"/><path d="M72.324 327.984c-.795 1.111-1.748 2.064-2.86 2.86a52.08 52.08 0 0 0-9.533 4.527 4.01 4.01 0 0 1-1.907.24c.208-.751.685-1.307 1.43-1.669 1.961-.979 4.026-1.693 6.197-2.145 2.379-1.03 4.604-2.302 6.673-3.813z" fill="#cbd1b2"/><path d="M309.693 335.612a13.68 13.68 0 0 1-2.384 1.667c-3.949.555-7.928.874-11.915.955-5.595 1.066-9.09 4.323-10.487 9.77-1.383 1.341-2.653 2.769-3.812 4.291h-.479v-1.432c.717-.801 1.511-1.597 2.384-2.383a162.2 162.2 0 0 1 2.145-6.672c1.728-1.22 3.553-2.254 5.482-3.098a16.75 16.75 0 0 0 3.574-3.098c2.915.609 5.854.609 8.82 0 .828.429 1.701.746 2.619.952a7.24 7.24 0 0 1 4.053-.952z" fill="#bfcfd3"/><path d="M143.821 333.227c1.678.439 3.108 1.232 4.29 2.383h1.43c.057.516.375.836.953.953a39.87 39.87 0 0 0 12.393 1.669c.742.098 1.378.338 1.907.714a316.99 316.99 0 0 0-12.87-.714c-1.493-.75-3.106-1.235-4.766-1.431-.875-1.495-1.987-2.686-3.337-3.574z" fill="#ced78c"/><path d="M149.541 335.611c1.903.654 3.889 1.13 5.958 1.429a21.5 21.5 0 0 1 6.911-.238l8.58 2.622c.034 1.455.511 2.727 1.43 3.814a2.37 2.37 0 0 1-1.43-.24c-1.769-1.834-3.835-3.186-6.196-4.051-.529-.375-1.164-.613-1.907-.714a39.84 39.84 0 0 1-12.393-1.669c-.578-.117-.896-.437-.953-.953z" fill="#cbcfc1"/><path d="M317.32 331.32c-2.28 1.884-4.347 4.029-6.198 6.434a363.87 363.87 0 0 1-18.112 1.908c-1.161 1.772-2.748 2.963-4.767 3.574-.886 1.788-2 3.378-3.336 4.767 1.397-5.447 4.892-8.704 10.487-9.77 3.987-.081 7.966-.4 11.915-.955.881-.489 1.675-1.045 2.384-1.667h.952c2.095-1.624 4.328-3.06 6.675-4.291z" fill="#608650"/><path d="M69.464 330.844a6.99 6.99 0 0 1-1.43 1.666c-2.468.725-4.862 1.683-7.149 2.86-.643 1.199-1.596 2.074-2.86 2.622-2.575 2.796-3.846 6.132-3.813 10.01l-3.813 2.86c.781-1.542 1.813-2.971 3.098-4.288l1.191-7.151c.802-1.592 1.915-2.865 3.337-3.812a4 4 0 0 0 1.907-.241c3.014-1.825 6.191-3.336 9.533-4.526z" fill="#d1db76"/><path d="M423.135 327.031h.952v.476.477c-.947 7.928-1.265 16.031-.952 24.309v.476h-.955-10.485-.955c-1.285-2.143-2.955-4.05-5.002-5.719l-.479-4.767a22.07 22.07 0 0 0-4.288-6.196c-4.651-2.05-9.18-4.275-13.585-6.675l-.952-1.428c.809-.077 1.603.002 2.381.238l3.338 3.336c6.188 1.217 10.876 4.476 14.061 9.772-.447 3.392.743 5.934 3.574 7.627a24.03 24.03 0 0 1 1.431 3.336h11.439c-.158-8.505 0-16.926.477-25.262z" fill="#b9cbc0"/><path d="M172.42 343.236c.547.141.865.537.953 1.193.275 1.019.434 2.051.477 3.098-1.228-1.119-1.704-2.547-1.43-4.291z" fill="#cbd4a8"/><path d="M387.387 329.412c4.404 2.4 8.934 4.624 13.584 6.675 1.783 1.815 3.212 3.881 4.289 6.195l.479 4.768c2.047 1.669 3.717 3.576 5.002 5.719.722 1.114.561 1.431-.476.953-.91-.704-1.468-1.659-1.667-2.86a3.36 3.36 0 0 0-2.145-1.191c-.315-.91-.871-1.624-1.669-2.145a20.34 20.34 0 0 0-.715-4.291c-.796-2.042-1.748-3.95-2.86-5.72-2.029.098-3.46-.775-4.291-2.621-1.579-.447-3.166-.844-4.764-1.191-1.074-1.114-2.344-1.987-3.815-2.622-.63-.388-.947-.944-.952-1.669z" fill="#5d844a"/><path d="M174.326 347.527c.911.275 1.706.752 2.383 1.432-.159 1.425.318 2.537 1.43 3.336v.476.952c-1.838-1.688-3.11-3.751-3.813-6.196z" fill="#cbd2aa"/><path d="M54.688 339.424l-1.191 7.151c-1.285 1.317-2.318 2.746-3.098 4.288-.813.807-1.766 1.442-2.86 1.907h-.476c.824-.351 1.301-.986 1.43-1.907 1.053-1.611 2.403-3.042 4.051-4.288.084-1.77.322-3.519.715-5.244.31-.804.786-1.439 1.43-1.907z" fill="#ccd3a7"/><path d="M32.763 327.984l.953.953a252.55 252.55 0 0 0 .477 21.926 27.15 27.15 0 0 0 6.911.952l6.435-.238c.259-.341.577-.579.953-.714-.129.92-.606 1.555-1.43 1.907H33.239h-.477v-24.786z" fill="#c2c9c1"/><path d="M32.763 352.769h13.823l1.023-.029c-.716 1.831-1.103 4.633-1.023 6.614-4.229.836-9.472.73-13.823.529.103-2.254 0-4.762 0-7.114z" fill="#8a7646"/><path d="M178.139 352.77h7.564v6.849c-2.171 0-5.01-.106-7.398 0 0-1.606.56-3.836-.166-5.897v-.952z" fill="#8b754a"/><path d="M270.608 352.77h10.011a4.88 4.88 0 0 1-1.431 1.428c-1.971.923-2.447 2.355-1.431 4.291-2.297-.071-4.998.423-7.149 1.13v-6.849z" fill="#8c744b"/><path d="M199.111 358.49h64.825v.953h-64.825v-.953z" fill="#867267"/><path d="M284.907 348.002a15.37 15.37 0 0 1-3.098 5.72c-.365 2.322-.923 4.547-1.669 6.674h-.952-7.627c2.449-.471 4.992-.629 7.627-.479v-5.719a4.85 4.85 0 0 0 1.428-1.429c.32 0 .479-.159.479-.476 1.159-1.521 2.428-2.95 3.812-4.291z" fill="#67833a"/><path d="M279.188 354.199v5.72c-2.635-.151-5.188.156-7.637.627-28.997.159-57.903-.151-86.739-.627h.477c4.694.156 9.301-.003 13.823-.476h64.822c2.336.619 4.72.619 7.151 0 2.151-.707 4.376-1.024 6.672-.953-1.016-1.936-.54-3.365 1.431-4.291z" fill="#797847"/><path d="M410.741 352.77h.955c.987 1.928 1.622 3.994 1.905 6.195a17.47 17.47 0 0 0 8.103 0 22.28 22.28 0 0 0 .476-6.195h.955c.63 2.415.63 4.878 0 7.386-3.492.238-6.987.317-10.487.238-.621-2.273-1.415-4.495-2.383-6.672 1.037.479 1.198.161.476-.952z" fill="#7a843c"/><path d="M411.695 352.77h10.484a22.28 22.28 0 0 1-.476 6.195 17.47 17.47 0 0 1-8.103 0c-.283-2.201-.918-4.267-1.905-6.195z" fill="#8a7549"/><path d="M447.873 333.561c6.254 17.703 24.867 50.264-3.439 62.433l-417.896.133c-14.252-.352-19.406-.926-25.755-14.286-.799-7.04.094-16.997.731-24.323 1.723-22.336 3.115-21.674 20.257-26.693 2.699-.886 8.002-1.431 11.022-1.497l.397 30.574c1.794.127 10.45.264 13.36-.68.966.802 1.608 2.037 2.866 2.347h125.358c1.312-.286 2.266-1 2.86-2.143 33.838.949 67.839 1.267 102.001.952.918.14 1.711.537 2.383 1.191h124.405c1.897-.397 3.645-1.112 5.243-2.143a116.83 116.83 0 0 0 10.487-.238c.63-2.511.63-4.974 0-7.389v-.476c.365-.366.603-.842.714-1.432.238-6.989.879-15.688.799-22.68 5.066-2.552 17.365-1.476 24.207 6.35z" fill="#8bc24a"/><path d="M447.873 333.561c1.984 1.719 5.214 9.904 6.746 12.301 4.222 9.339 5.767 12.336 4.979 23.114-2.008 7.936-12.093 19.447-15.164 27.018 28.306-12.169 9.693-44.73 3.439-62.433z" fill="#96bd63"/></g><defs><clipPath id="A"><path fill="#fff" d="M0 0h460v397H0z"/></clipPath></defs></svg>
